# xmcd CD database file
#
# Track frame offsets:
#	150
#	12626
#	32065
#	49352
#	74563
#	96470
#	122777
#	142128
#	161883
#	181110
#	203526
#	232767
#	255340
#
# Disc length: 3676 seconds
#
# Revision: 0
# Processed by: cddbd v1.5.1PL0 Copyright (c) Steve Scherf et al.
# Submitted via: CDex 1.51
#
DISCID=ba0e5a0d
DTITLE=Clara Moreno - Morena Bossa Nova
DYEAR=2004
DGENRE=Jazz
TTITLE0=Eletromble
TTITLE1=Morena Boosa Nova
TTITLE2=Samba é Tudo
TTITLE3=Ela
TTITLE4=Mercado da Mãe Preta
TTITLE5=Outras Praias
TTITLE6=Slow Motion Bossa Nova
TTITLE7=Feiticeira
TTITLE8=Kabrum
TTITLE9=Solidão
TTITLE10=Aldeia de Ogum
TTITLE11=Dans Mon Lle
TTITLE12=Heavy Telecoteco
EXTD=YEAR: 2004
EXTT0=
EXTT1=
EXTT2=
EXTT3=
EXTT4=
EXTT5=
EXTT6=
EXTT7=
EXTT8=
EXTT9=
EXTT10=
EXTT11=
EXTT12=
PLAYORDER=
